<?xml version="1.0" encoding="utf-8"?>
<!-- Generator: Adobe Illustrator 28.0.0, SVG Export Plug-In . SVG Version: 6.00 Build 0)  -->
<svg version="1.1" id="Шар_1" xmlns="http://www.w3.org/2000/svg" xmlns:xlink="http://www.w3.org/1999/xlink" x="0px" y="0px"
	 viewBox="0 0 141.7 141.7" style="enable-background:new 0 0 141.7 141.7;" xml:space="preserve">
<style type="text/css">
	.st0{fill:#2B4C9C;}
	.st1{fill:#FFFFFF;}
</style>
<g>
	<polygon class="st0" points="27.1,111 31.9,110.2 36.8,109.6 39.2,109.6 41.7,109.7 46.6,110.5 51.3,111.5 56.1,112.3 61,112.6 
		65.9,112.5 70.7,111.8 75.6,110.9 80.5,110 85.5,109.6 88,109.4 90.4,109.6 92.8,109.9 95.3,110.4 97.4,111.2 99.7,112.5 
		101.8,113.8 103.9,115.4 102.4,116.9 98,115.2 93.3,114.3 88.6,113.9 84.1,113.9 79.4,114.4 74.6,115.1 65.4,116.5 60.7,116.9 
		56,116.7 51.4,115.7 46.7,114.8 42.2,113.9 37.5,113.8 32.8,114.3 28,115.2 27.7,113.1 	"/>
	<polyline class="st0" points="25,108.3 30,107.1 35.3,106.5 40.5,106.5 45.7,107 56.1,108.7 58.7,109.1 61.3,109.2 63.9,108.9 
		66.5,108.6 76.9,106.1 82.3,105.2 87.5,105 90.1,105.2 92.8,105.5 95.4,106 98,106.6 100.5,107.6 102.9,108.7 107.4,111.3 
		110.9,106.6 114.3,101.9 20.7,101.9 22.4,105.5 23.5,107 25,108.3 	"/>
	<path class="st1" d="M97.7,87.8L97.7,87.8C97.7,87.8,97.8,87.8,97.7,87.8L97.7,87.8z"/>
	<g>
		<path class="st0" d="M42.3,86.5L42.3,86.5c-0.4-0.7-0.9-1.3-1.3-1.9l0,0l-4.5,0.2L32.1,85l-8.8,1.1l3.9-1.6l3.7-2.1l3.4-2.3
			l3.4-2.8l0,0c-1.1-3.2-1.6-6.5-1.7-9.9l-0.1,0H9.7l0.8,4.2l1.8,4.2l2.6,3.9l3.7,3.7l4.5,3.6l13.5,2.1L42.3,86.5z"/>
		<path class="st0" d="M36,91.4l-2.3,1.5l5.5,1.9l6,1.8l6.2,1.3l6.5,1l0.1-0.2c-2.8-1.1-5.6-2.6-8-4.4L36,91.4z"/>
		<polygon class="st0" points="26.3,89.1 32.1,92 33.9,90.9 		"/>
		<path class="st0" d="M66.3,34.1l-0.1,0l0,0.1l3.4,11.7v-5.4v-1.3v-5.4l0-0.1C68.5,33.8,67.4,33.9,66.3,34.1z"/>
		<path class="st0" d="M64.9,91.7l-3.2-2.3l-3.6-1.8l-3.9-1.3l-3.9-0.8l-5.5,1.6c1.4,1.8,3,3.4,4.8,4.9l0.1,0l20,4.4V83.1h-0.8
			L64.9,91.7z"/>
		<polygon class="st0" points="69.6,81.5 69.6,80.7 69.4,81.5 		"/>
		<path class="st0" d="M55.2,95.6c4.4,2.4,9.4,3.7,14.4,3.8l0,0v-0.7L55.2,95.6L55.2,95.6z"/>
		<path class="st0" d="M36.1,65.9l0-0.1c0.2-6.8,2.3-13.4,6.2-18.9l0,0l-5.5-2.7l-4.9-2.9l-6.3,3.2L20.2,48l-4.4,4.2l-3.2,4.4
			l-2.1,4.5l-0.8,4.7H36.1L36.1,65.9z"/>
		<path class="st0" d="M51.7,62.3l2.8-3.6l2.4-3.7l2.1-3.9l-5.2-0.8L48.7,49l-4.7-1.6l0,0c-3.9,5.4-6,11.8-6.2,18.3l0,0.1H49
			L51.7,62.3z"/>
		<path class="st0" d="M46.2,84.9l-3.1-0.2l0,0c0.2,0.4,0.5,0.7,0.7,1.1l0,0l2.8-0.9H46.2z"/>
		<path class="st0" d="M38.9,89.7l7.4,1.6v0c-1.1-1.1-2.2-2.3-3.2-3.5L38.9,89.7z"/>
		<path class="st0" d="M43.1,45.6l0.2-0.1c3.9-5,9-8.8,14.9-11.1v0l-6.5,0.9l-6.3,1.3l-6.2,1.8l-5.7,1.9l4.5,2.8L43.1,45.6z"/>
		<path class="st0" d="M61.7,45.9l1.5-3.7l1.3-3.9l1-4.1v0c-8.1,1.3-15.4,5.5-20.5,11.9l-0.1,0.2l4.8,1.4l5,1.1l5.2,0.8L61.7,45.9z"
			/>
		<path class="st0" d="M37.7,67.5L37.7,67.5c0.1,3,0.6,5.9,1.4,8.7l0,0l4.3-4.2l4.2-4.5H37.7z"/>
		<path class="st0" d="M97.7,87.8c-3.8,4.9-8.9,8.7-14.7,10.9l-0.1,0.1l6.5-1l6.3-1.3l5.8-1.8l5.7-1.9l-4.5-2.8L97.7,87.8z"/>
		<path class="st0" d="M97.7,87.8L97.7,87.8C97.7,87.8,97.8,87.8,97.7,87.8L97.7,87.8z"/>
		<polygon class="st0" points="82.3,82.3 83.7,78.7 84.7,75.1 85.2,71.2 85.2,67.5 72.7,67.5 72.2,71.6 71.2,75.8 71.2,81.5 
			76.8,81.6 		"/>
		<path class="st0" d="M98.8,46.8L98.8,46.8c3.6,5.2,5.7,11.2,6.1,17.4l0,0.2l1,1.5h25.2l-0.8-4.7l-2.1-4.5l-3.2-4.4l-4.4-4.1
			l-5.4-3.7l-6.3-3.2l-4.7,3.1L98.8,46.8z"/>
		<path class="st0" d="M109.7,71.9l2.4,4.4l1.9,4.7l1.6,4.7l-4.1-0.3l-4.2-0.2h-4.1l-4.1,0.5l-0.1,0c-0.2,0.2-0.3,0.5-0.5,0.7l0,0.1
			l5.5,2.6l4.5,3.1l6.5-3.2l5.4-3.7l4.4-4.1l3.2-4.4l2.1-4.5l0.8-4.7h-24L109.7,71.9z"/>
		<path class="st0" d="M71.2,31.1v-2.2l2.3-0.2l2.3,0.2l4.5,1.1l1.1,0.2h1.1l1.1-0.3l1-0.5l2.9-3.4v-1l-1.8,1.6l-1,0.6l-1.1,0.3
			h-1.3l-1.1-0.3L79,26.4l-2.3-0.8l-2.3-0.5L69.6,25v6.1C35.2,31.4,7.3,47.2,7.3,66.7c0,19.6,28.4,35.6,63.3,35.6
			c34.9,0,63.3-16,63.3-35.6C134,47.2,105.9,31.3,71.2,31.1z M70.6,101.3c-34.4,0-62.4-15.5-62.4-34.6c0-19.1,28-34.6,62.4-34.6
			S133,47.6,133,66.7C133,85.8,105,101.3,70.6,101.3z"/>
		<path class="st0" d="M96.2,87.1l-1.9-0.6l-5.5,1.6l-5.4,2.1l-5.2,2.6l-5,2.9l2.4-2.8l2.1-2.9l1.9-3.1l1.8-3.2l-5-0.5l-5.2-0.2
			v16.3h0.1C81,99.2,90.1,94.7,96.2,87.1z"/>
		<polygon class="st0" points="74.8,45.9 71.2,42 71.2,50.3 78.2,50 		"/>
		<path class="st0" d="M97.1,47.4l-6.8,2.1l3.4,2.8l3.4,3.1l3.1,3.1l2.8,3.4l0.1-0.1C102.2,56.5,100.2,51.6,97.1,47.4L97.1,47.4z"/>
		<path class="st0" d="M97.8,45.5L97.8,45.5l5.1-2.3l4.4-2.6l-5.7-2.1l-6-1.8l-6.5-1.3l-6.5-1C88.6,36.6,93.9,40.4,97.8,45.5z"/>
		<path class="st0" d="M80.3,43.3l4.2,2.4l4.1,2.6l3.9-1l3.6-1.1l0.1-0.1C90.1,38.5,81,34,71.3,33.8l-0.1,0.1v5.8l4.5,1.6L80.3,43.3
			z"/>
		<path class="st0" d="M72.9,65.9H85L84.2,62l-1.3-3.6l-1.8-3.6l-1.9-3.4l-3.9,0.3l-4,0.2l0,0c1.1,4.4,1.6,8.9,1.6,13.4
			c0,0.1,0,0.3,0,0.4L72.9,65.9z"/>
	</g>
</g>
</svg>
